<?xml version="1.0" encoding="UTF-8"?>
<svg width="110px" height="34px" viewBox="0 0 110 34" version="1.1" xmlns="http://www.w3.org/2000/svg" xmlns:xlink="http://www.w3.org/1999/xlink">
    <!-- Generator: Sketch 55.2 (78181) - https://sketchapp.com -->
    <title>logos/primary</title>
    <desc>Created with Sketch.</desc>
    <g id="Symbols" stroke="none" stroke-width="1" fill="none" fill-rule="evenodd">
        <g id="pattern/navigation/mobile/primary" transform="translate(-16.000000, -8.000000)" fill="#EE6E62" fill-rule="nonzero">
            <g id="element/logos/primary" transform="translate(16.000000, 8.000000)">
                <path d="M109.088233,27.572126 C109.088233,31.8462205 106.546727,34 102.276569,34 C99.8968316,34 98.2029398,33.3146457 98.2029398,33.3146457 L98.6588333,28.6162205 C98.6588333,28.6162205 99.6695533,29.2038583 100.939638,29.2038583 C102.535934,29.2038583 103.449058,28.3230709 103.449058,26.2348819 L103.449058,23.5925197 C102.993164,25.256378 101.461041,26.2027559 98.8219389,26.2027559 C95.1386936,26.2027559 93.4768882,24.3434646 93.4768882,21.3410236 C93.4768882,20.2969291 93.6720802,18.2408661 93.6720802,17.3935433 C93.6720802,16.0549606 93.2161867,15.534252 92.336486,15.534252 C91.9447651,15.534252 91.7174869,15.6319685 91.7174869,15.6319685 L91.7174869,11.4555906 C91.7174869,11.4555906 92.9554851,10.9335433 94.7483097,10.9335433 C98.1708535,10.9335433 99.2778324,12.8584252 99.2778324,15.6975591 C99.2778324,16.5462205 99.1802365,18.1123622 99.1802365,18.8619685 C99.1802365,20.5258268 99.63613,21.4066142 101.299272,21.4066142 C102.863482,21.4066142 103.450395,20.6556693 103.450395,19.2207087 L103.450395,11.2574803 L109.088233,11.2574803 L109.088233,27.572126 Z M89.6479175,16.085748 C89.6479175,16.085748 88.3764959,15.8568504 87.4647089,15.8568504 C85.3790963,15.8568504 84.8897795,16.9986614 84.8897795,18.6959843 L84.8897795,25.8748031 L79.2519409,25.8748031 L79.2519409,11.2574803 L84.8897795,11.2574803 L84.8897795,13.7044094 C85.5742883,11.6483465 86.9433058,10.9308661 89.6479175,10.9308661 L89.6479175,16.085748 Z M76.9069637,24.0797638 C76.9069637,24.0797638 75.3748406,26.2000787 72.5405466,26.2000787 C67.9134279,26.2000787 65.0122868,20.6208661 65.0122868,12.3323622 C65.0109504,5.12275591 67.194159,1.42108547e-14 72.2143354,1.42108547e-14 C75.2772447,1.42108547e-14 76.9069637,1.89275591 76.9069637,6.23244094 C76.9069637,11.8451181 74.1689287,16.3146457 72.0833162,18.9583465 C72.6702289,20.2634646 73.386824,20.9809449 74.2344384,20.9809449 C74.9189471,20.9809449 75.5058599,20.4910236 75.5058599,20.4910236 L76.9069637,24.0797638 Z M71.2357018,16.1513386 C71.2357018,16.1513386 73.289228,12.5291339 73.289228,7.30866142 C73.289228,5.54708661 73.0619498,4.82826772 72.2785081,4.82826772 C71.1046826,4.82826772 70.6487891,6.39440945 70.6487891,9.8211811 C70.6487891,13.8998425 71.2357018,16.1513386 71.2357018,16.1513386 Z M63.15529,23.5255906 C63.15529,23.5255906 60.3851687,26.2014173 55.040118,26.2014173 C49.9891922,26.2014173 46.5666485,23.8200787 46.5666485,18.5005512 C46.5666485,13.3122047 49.8260866,10.9308661 55.3663292,10.9308661 C59.7982559,10.9308661 63.0256077,12.4648819 63.0256077,15.6948819 C63.0256077,18.9583465 59.7340832,19.9368504 56.671174,19.9368504 C54.1938406,19.9368504 52.8582464,19.3170866 52.8582464,19.3170866 C53.1510343,21.3075591 54.3569462,21.7961417 56.3128765,21.7961417 C59.9306121,21.7961417 62.2769263,20.1001575 62.2769263,20.1001575 L63.15529,23.5255906 Z M52.8248231,17.4899213 C52.8248231,17.4899213 53.2486303,17.6197638 53.9010527,17.6197638 C55.3021565,17.6197638 56.5401548,16.967874 56.5401548,16.085748 C56.5401548,15.5637008 56.1163476,15.1728346 55.0735413,15.1728346 C53.7366102,15.1728346 52.9865918,15.8247244 52.8248231,17.4899213 Z M45.6227751,11.2574803 L40.8980604,25.8748031 L33.1090996,25.8748031 L28.57824,11.2574803 L34.6719721,11.2574803 L37.2789878,21.176378 L39.8204939,11.2574803 L45.6227751,11.2574803 Z M22.71446,25.8748031 L22.0620376,23.9499213 C21.4751249,25.548189 20.2050403,26.2014173 17.5646013,26.2014173 C14.0123753,26.2014173 11.8946763,25.0274803 11.8946763,21.6984252 C11.8946763,17.946378 14.5337784,17.3922047 17.7932165,17.3922047 C20.2705499,17.3922047 21.3775289,17.7188189 21.8347593,18.6317323 L21.8347593,17.4243307 C21.8347593,15.9559055 20.3681459,15.4673228 18.0873414,15.4673228 C15.0244321,15.4673228 13.2316075,16.3481102 13.2316075,16.3481102 L13.2316075,12.2681102 C13.2316075,12.2681102 15.610008,10.9629921 19.7491468,10.9629921 C24.539371,10.9629921 27.4070883,12.7245669 27.4070883,16.5422047 L27.4070883,25.8748031 L22.71446,25.8748031 Z M21.8347593,20.262126 C21.8347593,20.262126 21.1181643,19.9355118 19.7812331,19.9355118 C18.1194277,19.9355118 17.8587261,20.4254331 17.8587261,21.2740945 C17.8587261,22.5470866 18.4777253,22.8723622 19.8467427,22.8723622 C21.4430385,22.8723622 21.8347593,22.4159055 21.8347593,22.4159055 L21.8347593,20.262126 Z M10.3959765,16.085748 C10.3959765,16.085748 9.12455502,15.8568504 8.21276798,15.8568504 C6.12715541,15.8568504 5.63783861,16.9986614 5.63783861,18.6959843 L5.63783861,25.8748031 L0,25.8748031 L0,11.2574803 L5.63783861,11.2574803 L5.63783861,13.7044094 C6.32234735,11.6483465 7.69136484,10.9308661 10.3959765,10.9308661 L10.3959765,16.085748 Z" id="Combined-Shape"></path>
            </g>
        </g>
    </g>
</svg>